<!-- filepath: c:\Users\Dany Design\OneDrive\Desktop\javascript\miau-miau-deliciosos\src\assets\logo.svg -->
<svg width="140" height="140" viewBox="0 0 140 140" fill="none" xmlns="http://www.w3.org/2000/svg">
  <circle cx="70" cy="70" r="60" fill="#fff0fa" stroke="#e75480" stroke-width="4"/>
  <!-- Orelha esquerda -->
  <polygon points="25,40 10,10 45,30" fill="#ffd6e0" stroke="#e75480" stroke-width="3"/>
  <!-- Orelha direita -->
  <polygon points="115,40 130,10 95,30" fill="#ffd6e0" stroke="#e75480" stroke-width="3"/>
  <!-- Rosto do gato -->
  <ellipse cx="70" cy="80" rx="38" ry="35" fill="#fff" stroke="#e75480" stroke-width="3"/>
  <!-- Olhos -->
  <ellipse cx="55" cy="80" rx="6" ry="8" fill="#a14c7e"/>
  <ellipse cx="85" cy="80" rx="6" ry="8" fill="#a14c7e"/>
  <!-- Bochechas -->
  <ellipse cx="50" cy="95" rx="5" ry="3" fill="#ffd6e0"/>
  <ellipse cx="90" cy="95" rx="5" ry="3" fill="#ffd6e0"/>
  <!-- Nariz -->
  <ellipse cx="70" cy="90" rx="3" ry="2" fill="#e75480"/>
  <!-- Boca -->
  <path d="M67 95 Q70 100 73 95" stroke="#e75480" stroke-width="2" fill="none"/>
  <!-- Bigodes esquerdos -->
  <path d="M40 90 Q30 92 20 88" stroke="#e75480" stroke-width="2" fill="none"/>
  <path d="M42 100 Q32 105 22 102" stroke="#e75480" stroke-width="2" fill="none"/>
  <!-- Bigodes direitos -->
  <path d="M100 90 Q110 92 120 88" stroke="#e75480" stroke-width="2" fill="none"/>
  <path d="M98 100 Q108 105 118 102" stroke="#e75480" stroke-width="2" fill="none"/>
  <!-- Detalhe de confeitaria: chapéu de chef -->
  <ellipse cx="70" cy="45" rx="18" ry="10" fill="#fff" stroke="#e75480" stroke-width="2"/>
  <ellipse cx="70" cy="38" rx="8" ry="5" fill="#fff" stroke="#e75480" stroke-width="2"/>
</svg>